# xmcd
#
# Track frame offsets:
#	150
#	33969
#	49556
#	76838
#	111437
#	153080
#	182853
#	240954
#	262873
#	291321
#
# Disc length: 4343 seconds
#
# Revision: 1
# Processed by: cddbd v1.5.2PL0 Copyright (c) Steve Scherf et al.
# Submitted via: audiograbber 1.83.01
#
DISCID=7510f50a
DTITLE=Grateful Dead - 72-10-30A Ford Auditorium, Detroit MI
DYEAR=1900
DGENRE=
TTITLE0=Bertha
TTITLE1=Me and My Uncle
TTITLE2=Deal
TTITLE3=Black Throated Wind
TTITLE4=Sugaree
TTITLE5=El Paso
TTITLE6=Bird Song
TTITLE7=Big River
TTITLE8=China Cat Sunflower
TTITLE9=I Know You Rider
EXTD=
EXTT0=
EXTT1=
EXTT2=
EXTT3=
EXTT4=
EXTT5=
EXTT6=
EXTT7=
EXTT8=
EXTT9=
PLAYORDER=
